# xmcd CD database file
#
# Track frame offsets:
#	150
#	14249
#	30273
#	43752
#	53352
#	72391
#	82946
#	100796
#	111978
#	119534
#	130091
#	144998
#	163180
#	178837
#	195249
#	215406
#	227413
#	244220
#	258702
#	270859
#	280916
#
# Disc length: 3966 seconds
#
# Revision: 0
# Processed by: cddbd v1.5.2PL0 Copyright (c) Steve Scherf et al.
# Submitted via: ACXtractor (MTCDDB.DLL V2003.12.21)
#
DISCID=250f7c15
DTITLE=Rex Dallas - Souvenir Edition
DYEAR=1997
DGENRE=Country
TTITLE0=I'm a Miner's Son
TTITLE1=The Western Main
TTITLE2=Ivanhoe Mine
TTITLE3=Heroe's of the Pit
TTITLE4=Pit Ponies
TTITLE5=The Miner's Ladies
TTITLE6=Lumps of Coal
TTITLE7=We dig Coal
TTITLE8=Jack the Pegleg
TTITLE9=The Miners
TTITLE10=Coal Truck's
TTITLE11=Old Wallerwang
TTITLE12=A Memory or Two
TTITLE13=Mustering Again
TTITLE14=King of them All
TTITLE15=The Ringer's Room
TTITLE16=Playroom Rodeo
TTITLE17=The Slim Dusty Tree
TTITLE18=Song of the Country
TTITLE19=Moonbi Ranges
TTITLE20=When Australia was Young
EXTD=ID3G:   2 YEAR: 1997
EXTT0=
EXTT1=
EXTT2=
EXTT3=
EXTT4=
EXTT5=
EXTT6=
EXTT7=
EXTT8=
EXTT9=
EXTT10=
EXTT11=
EXTT12=
EXTT13=
EXTT14=
EXTT15=
EXTT16=
EXTT17=
EXTT18=
EXTT19=
EXTT20=
PLAYORDER=
